<?xml version="1.0" encoding="utf-8"?>
<!-- Generator: Adobe Illustrator 22.1.0, SVG Export Plug-In . SVG Version: 6.00 Build 0)  -->
<svg version="1.1" id="Layer_1" xmlns="http://www.w3.org/2000/svg" xmlns:xlink="http://www.w3.org/1999/xlink" x="0px" y="0px"
	 viewBox="0 0 500 288.1" style="enable-background:new 0 0 500 288.1;" xml:space="preserve">
<style type="text/css">
	.st0{fill:#F69220;}
	.st1{fill:#2678A9;}
</style>
<g>
	<g>
		<path class="st0" d="M61,9.4C67.3,14,71.2,20.2,72.8,28l-14.4,3c-0.8-4.8-3.1-8.6-6.9-11.5c-3.8-2.9-8.4-4.4-13.7-4.4
			c-5.3,0-9.6,1.3-12.8,3.8c-3.2,2.6-4.8,5.9-4.8,9.9c0,3.1,0.9,5.6,2.8,7.4c1.8,1.8,4.7,3.1,8.7,3.9l19.5,4.2
			C66.6,47.7,74.3,56,74.3,69c0,8.4-3.2,15.2-9.5,20.1c-6.3,5-14.7,7.5-25.1,7.5c-10,0-18.4-2.4-25.3-7.1
			c-6.9-4.7-10.9-11.3-12-19.7l15.4-3.2c1.1,5.7,3.7,9.9,7.8,12.9c4.1,2.9,9.3,4.4,15.5,4.4c5.9,0,10.6-1.3,13.9-3.8
			c3.4-2.6,5.1-6,5.1-10.2c0-3.4-1-6-2.9-7.8c-1.9-1.8-5.2-3.2-9.8-4.2l-19.7-4C12.5,50.3,4.9,42.1,4.9,29.2c0-8,3-14.4,9.1-19.3
			c6.1-4.9,14.1-7.3,24-7.3C47.1,2.6,54.8,4.8,61,9.4z"/>
		<path class="st0" d="M152.7,94.7h-14v-8.2c-5.7,6.7-13.3,10.1-23,10.1c-8.1,0-14.6-2.6-19.5-7.9c-4.9-5.3-7.3-12.1-7.3-20.5V27.9
			h14v37.5c0,5.5,1.5,9.9,4.4,13.3c2.9,3.4,6.8,5.1,11.7,5.1c6.2,0,11-2.1,14.6-6.3c3.5-4.2,5.3-10.4,5.3-18.6V27.9h14V94.7z"/>
		<path class="st0" d="M230.6,33.9c4.9,5.3,7.4,12.1,7.4,20.4v40.4h-14.1V57.1c0-5.5-1.5-9.9-4.4-13.2c-2.9-3.3-6.8-5-11.5-5
			c-6.2,0-11.1,2.1-14.6,6.3c-3.5,4.2-5.3,10.4-5.3,18.6v30.9h-14V27.9h14v8.2c5.7-6.7,13.4-10.1,23.2-10.1
			C219.2,26,225.7,28.6,230.6,33.9z"/>
		<path class="st0" d="M317.3,94.7l-32.2-36H272v36h-14.4V4.4H300c9.3,0,16.7,2.5,22.4,7.5c5.7,5,8.6,11.6,8.6,19.7
			c0,7.7-2.6,14-7.7,18.9c-5.2,4.9-12.1,7.6-20.7,8l32.6,36.1H317.3z M300,45.7c4.9,0,8.9-1.3,12-3.8c3.1-2.6,4.6-6,4.6-10.2
			c0-4.2-1.5-7.6-4.6-10.2c-3.1-2.6-7.1-3.9-12-3.9h-28v28.2H300z"/>
		<path class="st0" d="M411.3,94.7h-14V87c-6.1,6.4-14.2,9.6-24.3,9.6c-9.1,0-16.9-3.3-23.4-9.9c-6.5-6.6-9.8-15.1-9.8-25.4
			c0-10.2,3.3-18.7,9.8-25.3c6.6-6.6,14.3-10,23.3-10c10.1,0,18.1,3.2,24.3,9.6v-7.7h14V94.7z M390.7,77.8c4.4-4.3,6.6-9.8,6.6-16.5
			c0-6.7-2.2-12.2-6.6-16.5c-4.4-4.3-9.5-6.4-15.4-6.4c-6.3,0-11.5,2.1-15.6,6.3c-4.1,4.2-6.2,9.7-6.2,16.6c0,6.9,2.1,12.5,6.2,16.6
			c4.1,4.2,9.3,6.3,15.6,6.3C381.2,84.2,386.3,82.1,390.7,77.8z"/>
		<path class="st0" d="M457.4,117.6h-15.6l10.9-24.5l-28.8-65.3h15.6L460.4,76l21.4-48.2h15.6L457.4,117.6z"/>
	</g>
	<g>
		<path class="st1" d="M24.4,144v7.4c-1.3-1.6-2.5-2.6-3.5-3.2c-1-0.6-2.2-0.9-3.6-0.9c-2.1,0-3.9,0.7-5.3,2.2
			c-1.4,1.5-2.1,3.3-2.1,5.5c0,2.3,0.7,4.1,2,5.6c1.4,1.5,3.1,2.2,5.3,2.2c1.4,0,2.6-0.3,3.6-0.9c1-0.6,2.2-1.6,3.6-3.3v7.3
			c-2.3,1.2-4.6,1.8-6.9,1.8c-3.8,0-7-1.2-9.5-3.6c-2.6-2.4-3.8-5.4-3.8-9c0-3.6,1.3-6.6,3.9-9.1c2.6-2.5,5.8-3.7,9.5-3.7
			C19.9,142.3,22.2,142.9,24.4,144z"/>
		<path class="st1" d="M28.7,154.8c0-3.5,1.3-6.4,3.8-8.9c2.5-2.4,5.6-3.7,9.3-3.7c3.7,0,6.8,1.2,9.3,3.7c2.5,2.5,3.8,5.5,3.8,9.1
			c0,3.6-1.3,6.6-3.8,9.1c-2.6,2.4-5.7,3.6-9.4,3.6c-3.7,0-6.8-1.2-9.3-3.7C30,161.6,28.7,158.5,28.7,154.8z M34.5,154.9
			c0,2.4,0.7,4.3,2,5.7c1.3,1.4,3.1,2.1,5.3,2.1c2.2,0,4-0.7,5.3-2.1c1.3-1.4,2-3.3,2-5.6c0-2.3-0.7-4.2-2-5.6
			c-1.3-1.4-3.1-2.1-5.3-2.1c-2.2,0-3.9,0.7-5.3,2.1C35.2,150.9,34.5,152.7,34.5,154.9z"/>
		<path class="st1" d="M60.9,143h5.7v2.2c2-1.9,4.2-2.9,6.7-2.9c2.9,0,5.1,0.9,6.7,2.6c1.4,1.5,2.1,3.9,2.1,7.3v14.8h-5.7v-13.5
			c0-2.4-0.3-4-1-4.9c-0.7-0.9-1.9-1.4-3.6-1.4c-1.9,0-3.2,0.6-4,1.8c-0.8,1.2-1.2,3.3-1.2,6.3v11.6h-5.7V143z"/>
		<path class="st1" d="M103.6,147.1l-4.7,2.4c-0.7-1.5-1.7-2.2-2.7-2.2c-0.5,0-1,0.2-1.3,0.5c-0.4,0.3-0.6,0.8-0.6,1.3
			c0,0.9,1.1,1.8,3.3,2.7c3,1.3,5,2.4,6.1,3.5c1,1.1,1.6,2.5,1.6,4.3c0,2.3-0.9,4.3-2.6,5.8c-1.7,1.5-3.8,2.2-6.2,2.2
			c-4.1,0-7-2-8.8-5.9l4.8-2.2c0.7,1.2,1.2,1.9,1.5,2.2c0.7,0.6,1.5,0.9,2.5,0.9c1.9,0,2.9-0.9,2.9-2.6c0-1-0.7-1.9-2.2-2.8
			c-0.6-0.3-1.1-0.6-1.7-0.8c-0.6-0.3-1.2-0.5-1.7-0.8c-1.6-0.8-2.8-1.6-3.5-2.4c-0.9-1-1.3-2.3-1.3-3.9c0-2.1,0.7-3.8,2.2-5.2
			c1.5-1.4,3.3-2.1,5.5-2.1C99.7,142.3,102,143.9,103.6,147.1z"/>
		<path class="st1" d="M116.1,148.2v18.9h-5.7v-18.9H108V143h2.4v-8.8h5.7v8.8h4.4v5.2H116.1z"/>
		<path class="st1" d="M124.4,143h5.7v2.2c1-1.1,2-1.8,2.8-2.2c0.8-0.4,1.8-0.6,2.9-0.6c1.5,0,3.1,0.5,4.7,1.4l-2.6,5.1
			c-1.1-0.8-2.1-1.1-3.2-1.1c-3.1,0-4.6,2.3-4.6,6.9v12.5h-5.7V143z"/>
		<path class="st1" d="M150.2,143v13.8c0,4,1.6,6,4.8,6c3.2,0,4.8-2,4.8-6V143h5.7v13.9c0,1.9-0.2,3.6-0.7,5
			c-0.5,1.3-1.3,2.4-2.4,3.4c-1.9,1.6-4.4,2.4-7.3,2.4c-2.9,0-5.4-0.8-7.3-2.4c-1.2-1-2-2.1-2.5-3.4c-0.5-1.1-0.7-2.8-0.7-5V143
			H150.2z"/>
		<path class="st1" d="M191.8,144v7.4c-1.3-1.6-2.5-2.6-3.5-3.2c-1-0.6-2.2-0.9-3.6-0.9c-2.1,0-3.9,0.7-5.3,2.2
			c-1.4,1.5-2.1,3.3-2.1,5.5c0,2.3,0.7,4.1,2,5.6c1.4,1.5,3.1,2.2,5.3,2.2c1.4,0,2.6-0.3,3.6-0.9c1-0.6,2.2-1.6,3.6-3.3v7.3
			c-2.3,1.2-4.6,1.8-6.9,1.8c-3.8,0-7-1.2-9.5-3.6c-2.6-2.4-3.8-5.4-3.8-9c0-3.6,1.3-6.6,3.9-9.1c2.6-2.5,5.8-3.7,9.5-3.7
			C187.3,142.3,189.6,142.9,191.8,144z"/>
		<path class="st1" d="M203.1,148.2v18.9h-5.7v-18.9H195V143h2.4v-8.8h5.7v8.8h4.4v5.2H203.1z"/>
		<path class="st1" d="M210.5,133c0-1,0.4-1.8,1.1-2.5c0.7-0.7,1.6-1.1,2.6-1.1c1,0,1.9,0.4,2.6,1.1c0.7,0.7,1.1,1.5,1.1,2.5
			c0,1-0.4,1.9-1.1,2.6c-0.7,0.7-1.6,1.1-2.6,1.1c-1,0-1.9-0.4-2.6-1.1C210.9,134.8,210.5,134,210.5,133z M217.1,143v24.1h-5.7V143
			H217.1z"/>
		<path class="st1" d="M223.1,154.8c0-3.5,1.3-6.4,3.8-8.9c2.5-2.4,5.6-3.7,9.3-3.7c3.7,0,6.8,1.2,9.3,3.7c2.5,2.5,3.8,5.5,3.8,9.1
			c0,3.6-1.3,6.6-3.8,9.1c-2.6,2.4-5.7,3.6-9.4,3.6c-3.7,0-6.8-1.2-9.3-3.7C224.3,161.6,223.1,158.5,223.1,154.8z M228.9,154.9
			c0,2.4,0.7,4.3,2,5.7c1.3,1.4,3.1,2.1,5.3,2.1c2.2,0,4-0.7,5.3-2.1c1.3-1.4,2-3.3,2-5.6c0-2.3-0.7-4.2-2-5.6
			c-1.3-1.4-3.1-2.1-5.3-2.1c-2.2,0-3.9,0.7-5.3,2.1C229.6,150.9,228.9,152.7,228.9,154.9z"/>
		<path class="st1" d="M255.3,143h5.7v2.2c2-1.9,4.2-2.9,6.7-2.9c2.9,0,5.1,0.9,6.7,2.6c1.4,1.5,2.1,3.9,2.1,7.3v14.8h-5.7v-13.5
			c0-2.4-0.3-4-1-4.9c-0.7-0.9-1.9-1.4-3.6-1.4c-1.9,0-3.2,0.6-4,1.8c-0.8,1.2-1.2,3.3-1.2,6.3v11.6h-5.7V143z"/>
		<path class="st1" d="M313.9,147.1l-4.7,2.4c-0.7-1.5-1.7-2.2-2.7-2.2c-0.5,0-1,0.2-1.3,0.5c-0.4,0.3-0.6,0.8-0.6,1.3
			c0,0.9,1.1,1.8,3.3,2.7c3,1.3,5,2.4,6.1,3.5c1,1.1,1.6,2.5,1.6,4.3c0,2.3-0.9,4.3-2.6,5.8c-1.7,1.5-3.8,2.2-6.2,2.2
			c-4.1,0-7-2-8.8-5.9l4.8-2.2c0.7,1.2,1.2,1.9,1.5,2.2c0.7,0.6,1.5,0.9,2.5,0.9c1.9,0,2.9-0.9,2.9-2.6c0-1-0.7-1.9-2.2-2.8
			c-0.6-0.3-1.1-0.6-1.7-0.8c-0.6-0.3-1.2-0.5-1.7-0.8c-1.7-0.8-2.8-1.6-3.5-2.4c-0.9-1-1.3-2.3-1.3-3.9c0-2.1,0.7-3.8,2.2-5.2
			c1.5-1.4,3.3-2.1,5.5-2.1C310,142.3,312.4,143.9,313.9,147.1z"/>
		<path class="st1" d="M319.4,154.8c0-3.5,1.3-6.4,3.8-8.9c2.5-2.4,5.6-3.7,9.3-3.7c3.7,0,6.8,1.2,9.3,3.7c2.5,2.5,3.8,5.5,3.8,9.1
			c0,3.6-1.3,6.6-3.8,9.1c-2.6,2.4-5.7,3.6-9.4,3.6c-3.7,0-6.8-1.2-9.3-3.7C320.7,161.6,319.4,158.5,319.4,154.8z M325.2,154.9
			c0,2.4,0.7,4.3,2,5.7c1.3,1.4,3.1,2.1,5.3,2.1c2.2,0,4-0.7,5.3-2.1c1.3-1.4,2-3.3,2-5.6c0-2.3-0.7-4.2-2-5.6
			c-1.3-1.4-3.1-2.1-5.3-2.1c-2.2,0-3.9,0.7-5.3,2.1C325.9,150.9,325.2,152.7,325.2,154.9z"/>
		<path class="st1" d="M370.2,143v13.8c0,4,1.6,6,4.8,6c3.2,0,4.8-2,4.8-6V143h5.7v13.9c0,1.9-0.2,3.6-0.7,5
			c-0.5,1.3-1.3,2.4-2.4,3.4c-1.9,1.6-4.4,2.4-7.3,2.4c-2.9,0-5.4-0.8-7.3-2.4c-1.2-1-2-2.1-2.5-3.4c-0.5-1.1-0.7-2.8-0.7-5V143
			H370.2z"/>
		<path class="st1" d="M398.5,148.2v18.9h-5.7v-18.9h-2.4V143h2.4v-8.8h5.7v8.8h4.4v5.2H398.5z"/>
		<path class="st1" d="M405.9,133c0-1,0.4-1.8,1.1-2.5c0.7-0.7,1.6-1.1,2.6-1.1c1,0,1.9,0.4,2.6,1.1c0.7,0.7,1.1,1.5,1.1,2.5
			c0,1-0.4,1.9-1.1,2.6c-0.7,0.7-1.6,1.1-2.6,1.1c-1,0-1.9-0.4-2.6-1.1C406.3,134.8,405.9,134,405.9,133z M412.5,143v24.1h-5.7V143
			H412.5z"/>
		<path class="st1" d="M418.5,154.8c0-3.5,1.3-6.4,3.8-8.9c2.5-2.4,5.6-3.7,9.3-3.7c3.7,0,6.8,1.2,9.3,3.7c2.5,2.5,3.8,5.5,3.8,9.1
			c0,3.6-1.3,6.6-3.8,9.1c-2.6,2.4-5.7,3.6-9.4,3.6c-3.7,0-6.8-1.2-9.3-3.7C419.7,161.6,418.5,158.5,418.5,154.8z M424.3,154.9
			c0,2.4,0.7,4.3,2,5.7c1.3,1.4,3.1,2.1,5.3,2.1c2.2,0,4-0.7,5.3-2.1c1.3-1.4,2-3.3,2-5.6c0-2.3-0.7-4.2-2-5.6
			c-1.3-1.4-3.1-2.1-5.3-2.1c-2.2,0-3.9,0.7-5.3,2.1C425,150.9,424.3,152.7,424.3,154.9z"/>
		<path class="st1" d="M450.7,143h5.7v2.2c2-1.9,4.2-2.9,6.7-2.9c2.9,0,5.1,0.9,6.7,2.6c1.4,1.5,2.1,3.9,2.1,7.3v14.8h-5.7v-13.5
			c0-2.4-0.3-4-1-4.9c-0.7-0.9-1.9-1.4-3.6-1.4c-1.9,0-3.2,0.6-4,1.8c-0.8,1.2-1.2,3.3-1.2,6.3v11.6h-5.7V143z"/>
		<path class="st1" d="M493.3,147.1l-4.7,2.4c-0.7-1.5-1.7-2.2-2.7-2.2c-0.5,0-1,0.2-1.3,0.5c-0.4,0.3-0.6,0.8-0.6,1.3
			c0,0.9,1.1,1.8,3.3,2.7c3,1.3,5,2.4,6.1,3.5c1,1.1,1.6,2.5,1.6,4.3c0,2.3-0.9,4.3-2.6,5.8c-1.7,1.5-3.8,2.2-6.2,2.2
			c-4.1,0-7-2-8.8-5.9l4.8-2.2c0.7,1.2,1.2,1.9,1.5,2.2c0.7,0.6,1.5,0.9,2.5,0.9c1.9,0,2.9-0.9,2.9-2.6c0-1-0.7-1.9-2.2-2.8
			c-0.6-0.3-1.1-0.6-1.7-0.8c-0.6-0.3-1.2-0.5-1.7-0.8c-1.6-0.8-2.8-1.6-3.5-2.4c-0.9-1-1.3-2.3-1.3-3.9c0-2.1,0.7-3.8,2.2-5.2
			c1.5-1.4,3.3-2.1,5.5-2.1C489.5,142.3,491.8,143.9,493.3,147.1z"/>
		<path class="st1" d="M357.3,147.2v20.6h-5.7v-20.6l0,0v-5.7l0,0V126h5.7v15.5l0,0V147.2L357.3,147.2z"/>
	</g>
	<g>
		<g>
			<path class="st0" d="M241.8,284C174.3,284,117.3,264,80,246.2c-44.8-21.4-71.8-44.4-72.1-44.7c-1.1-0.9-1.2-2.5-0.3-3.6
				c0.9-1.1,2.5-1.2,3.6-0.3c0.3,0.2,26.8,22.9,71.1,44c40.8,19.5,105.4,41.6,181.6,36.6c0.4,0,30.5-1.1,72.9-11.5
				c39.1-9.6,97-29.5,150.8-69.2c1.1-0.8,2.7-0.6,3.6,0.5c0.8,1.1,0.6,2.7-0.5,3.6c-54.5,40.2-113.1,60.3-152.7,70
				c-42.9,10.6-73.4,11.6-73.7,11.6C256.6,283.8,249.1,284,241.8,284z"/>
			<path class="st0" d="M241.8,285.9c-68.5,0-126.2-20.7-162.6-38.1C34,226.2,7,203.1,6.7,202.9c-1.8-1.6-2-4.3-0.5-6.1
				c1.6-1.8,4.3-2,6.1-0.5c0.3,0.2,26.6,22.7,70.7,43.7c40.6,19.4,104.9,41.4,180.7,36.4c1.3,0,30.9-1.2,72.6-11.5
				c38.9-9.6,96.6-29.3,150.1-68.9c0.9-0.7,2.1-1,3.2-0.8c1.2,0.2,2.2,0.8,2.9,1.7c1.4,1.9,1,4.7-0.9,6.1
				c-54.7,40.4-113.6,60.6-153.3,70.4c-43,10.6-73.8,11.7-74.1,11.7C256.8,285.6,249.3,285.9,241.8,285.9z M9.6,198.8
				c-0.2,0-0.4,0.1-0.6,0.3c-0.3,0.3-0.2,0.8,0.1,1c0.3,0.2,27.1,23.1,71.7,44.4c36,17.2,93.1,37.7,161,37.7
				c7.4,0,14.9-0.2,22.3-0.7c0.4,0,30.8-1.1,73.4-11.6c39.4-9.7,97.8-29.7,152.1-69.7c0.3-0.2,0.4-0.7,0.2-1
				c-0.2-0.2-0.4-0.3-0.5-0.3c-0.1,0-0.3,0-0.6,0.1c-54,39.9-112.1,59.8-151.4,69.5c-42,10.4-72,11.5-73.2,11.6
				c-7.5,0.5-14.9,0.7-22.2,0.7c-66.8,0-123.3-19.8-160.2-37.5c-44.7-21.3-71.2-44-71.5-44.3C9.9,198.9,9.8,198.8,9.6,198.8z"/>
		</g>
	</g>
</g>
</svg>
